# xmcd
#
# Track frame offsets:
# 150
# 16614
# 32824
# 47818
# 66003
# 83527
# 103492
# 125216
# 148706
# 166645
# 193910
# 212839
# 232249
# 250226
# 264715
# 282142
#
# Disc length: 3952 seconds
#
#
# Revision: 0
# Processed by: cddbd v1.5.1PL0 Copyright (c) Steve Scherf et al.
# Submitted via: FreeRIP 2.92 
#
DISCID=ed0f6e10
DTITLE=David bowie - David Bowie - the singles collection Cd2
DYEAR=1988
DGENRE=A Cappella
TTITLE0=Hereos
TTITLE1=Beauty and the beast
TTITLE2=Boys keep swinning
TTITLE3=Dj
TTITLE4=Alabama song
TTITLE5=Ashes to ashes
TTITLE6=Fashion
TTITLE7=Scary monsters
TTITLE8=Under pressure
TTITLE9=Wild is the wind
TTITLE10=Lets dance
TTITLE11=China girl
TTITLE12=Modern love
TTITLE13=Blue jean
TTITLE14=This is not america
TTITLE15=Dancing in the street
EXTD=
EXTT0=
EXTT1=
EXTT2=
EXTT3=
EXTT4=
EXTT5=
EXTT6=
EXTT7=
EXTT8=
EXTT9=
EXTT10=
EXTT11=
EXTT12=
EXTT13=
EXTT14=
EXTT15=
PLAYORDER=
